<svg version="1.1" id="Layer_1" xmlns="http://www.w3.org/2000/svg" xmlns:xlink="http://www.w3.org/1999/xlink" x="0px" y="0px"
	 width="100%" viewBox="0 0 1280 853" enable-background="new 0 0 1280 853" xml:space="preserve">
<path fill="#000000" opacity="1.000000" stroke="none" 
	d="
M810.000000,854.000000 
	C540.031555,854.000000 270.563080,854.000000 1.047299,854.000000 
	C1.047299,569.731445 1.047299,285.462952 1.047299,1.097201 
	C427.551941,1.097201 854.103943,1.097201 1280.827881,1.097201 
	C1280.827881,285.333252 1280.827881,569.666626 1280.827881,854.000000 
	C1124.129272,854.000000 967.314636,854.000000 810.000000,854.000000 
M880.186462,385.473328 
	C880.186462,404.888428 880.186462,424.303497 880.186462,443.828400 
	C883.365051,443.828400 886.164307,443.828400 889.720154,443.964722 
	C890.808838,442.701141 891.897522,441.437561 893.119995,439.210205 
	C893.074707,429.757904 893.029419,420.305634 893.092957,410.029388 
	C892.047974,401.170868 899.154358,395.538300 907.951904,395.058044 
	C916.510071,394.590881 921.829529,400.133606 921.952820,409.445160 
	C922.054077,417.095215 921.974121,424.747711 921.975281,432.399109 
	C921.977112,444.583130 921.977417,444.584045 934.292786,443.967651 
	C934.416016,443.961487 934.529297,443.756226 934.996033,443.311768 
	C934.996033,435.040955 935.116699,426.431152 934.954102,417.826721 
	C934.842957,411.943024 935.092773,405.903992 933.868164,400.217163 
	C929.902222,381.800171 906.703979,377.881134 894.269287,389.240753 
	C893.727234,389.742340 893.185181,390.243896 891.654541,391.660278 
	C893.275085,385.036804 889.889587,384.677307 885.867004,385.008728 
	C884.249817,385.141968 882.620911,385.131744 880.186462,385.473328 
M727.005554,407.128143 
	C726.939819,415.023529 726.738037,422.921112 726.863281,430.813446 
	C726.929993,435.012482 727.562988,439.202515 728.636658,443.844482 
	C730.296387,443.919037 731.974609,443.862396 733.612427,444.092712 
	C738.507385,444.781097 740.334717,443.107391 740.115723,437.844696 
	C739.673096,427.206116 739.828003,416.534851 739.995422,405.881134 
	C740.135010,396.996490 736.978882,389.772430 729.019470,385.751038 
	C720.955261,381.676697 712.483215,381.066711 704.569214,386.690063 
	C701.693115,388.733704 698.972839,390.996582 696.183044,393.161621 
	C685.799988,380.414246 675.426819,379.487244 659.691589,389.878326 
	C658.972595,387.989319 658.513733,384.655975 657.480042,384.467072 
	C654.372559,383.899048 650.593628,383.697418 647.967957,385.064697 
	C646.439880,385.860474 646.302002,389.916718 646.129700,392.544647 
	C645.982605,394.787903 646.944397,397.084839 646.958679,399.360931 
	C647.041321,412.514587 646.958374,425.669189 647.020203,438.823059 
	C647.027649,440.410675 647.347473,443.273529 647.901001,443.369812 
	C650.952881,443.900818 654.190430,444.138702 657.208801,443.602234 
	C658.077393,443.447784 658.870056,440.412933 658.948486,438.665100 
	C659.446106,427.565002 659.529053,416.443512 660.178650,405.354248 
	C660.494934,399.954468 667.008667,395.275665 673.440247,395.044403 
	C679.877502,394.812897 684.729980,398.202667 685.846619,404.095612 
	C686.517517,407.636292 686.926880,411.273224 686.984314,414.874359 
	C687.137451,424.465332 687.036377,434.060364 687.036377,444.055664 
	C690.030640,444.055664 692.352356,443.877930 694.636475,444.094849 
	C698.665649,444.477570 700.263916,443.093536 700.149780,438.792755 
	C699.880432,428.644379 700.038940,418.483185 700.130005,408.328125 
	C700.145996,406.549377 700.350403,404.638245 701.029358,403.024567 
	C703.116394,398.064423 709.253052,394.756042 715.252197,395.057587 
	C721.951904,395.394348 724.502808,397.798096 727.005554,407.128143 
M400.439911,316.081879 
	C399.136108,315.369476 397.823242,314.673065 396.529846,313.942230 
	C385.210388,307.545776 373.424500,304.003265 360.692261,309.269562 
	C352.776489,312.543701 345.098022,316.395142 337.335968,320.036377 
	C323.927460,326.326447 310.481842,332.541382 297.159790,339.010254 
	C289.476257,342.741211 281.646790,346.098724 275.588593,352.723541 
	C266.734100,362.406189 268.078186,374.701660 279.770966,380.861542 
	C300.787384,391.933258 321.944397,402.744263 343.195038,413.359070 
	C346.611664,415.065735 350.778137,415.529663 354.666199,415.983154 
	C364.435608,417.122589 372.174530,411.369751 380.467804,407.677643 
	C381.060486,407.413788 381.065002,404.597961 380.496216,403.356720 
	C380.063629,402.412628 378.289520,402.078217 377.106567,401.483795 
	C364.458923,395.128326 351.773315,388.846832 339.184082,382.377716 
	C335.392700,380.429474 334.807159,375.731079 337.946014,372.800293 
	C339.841492,371.030457 342.139191,369.574432 344.472504,368.411530 
	C353.039642,364.141998 361.672394,360.001343 370.328339,355.913605 
	C377.947754,352.315338 385.625885,348.840973 393.287872,345.333282 
	C402.143524,341.279114 411.040497,337.312927 419.842194,333.145294 
	C421.354126,332.429352 423.695892,330.652588 423.522705,329.797638 
	C423.197723,328.193359 421.586029,326.383514 420.032776,325.576172 
	C413.820679,322.347351 407.425568,319.470734 400.439911,316.081879 
M406.051025,438.551086 
	C416.269226,433.732910 426.377716,428.662842 436.730621,424.153961 
	C453.410034,416.889893 457.902618,404.593323 453.440826,388.653503 
	C452.211487,384.261749 449.956604,384.244812 446.510101,385.900726 
	C435.953827,390.972717 425.390991,396.035126 414.749176,400.923889 
	C401.182892,407.156097 387.441040,413.012787 373.954865,419.410767 
	C362.610718,424.792603 351.392792,426.033325 339.921326,420.194183 
	C335.437958,417.912079 331.061005,415.420685 326.574188,413.145599 
	C308.076294,403.765869 289.546204,394.449524 271.052216,385.062103 
	C268.598602,383.816620 266.735657,383.572723 265.649628,386.707947 
	C265.172943,388.084137 264.192230,389.285278 263.711395,390.660645 
	C259.696716,402.144409 260.178192,412.711975 270.440277,419.769592 
	C276.261841,423.773315 282.772766,426.811707 289.100830,430.034332 
	C303.609192,437.422821 318.412903,444.260712 332.689240,452.067291 
	C346.815125,459.791534 360.569397,460.180847 374.916107,453.084961 
	C384.947998,448.123169 395.229736,443.666443 406.051025,438.551086 
M302.924133,480.492554 
	C311.277374,484.807098 319.696564,488.999451 327.968079,493.465424 
	C339.786774,499.846649 352.090118,502.440918 365.079285,497.986847 
	C371.424622,495.811066 377.503845,492.823822 383.619171,490.019897 
	C395.448914,484.595886 407.218872,479.041504 419.923065,473.117004 
	C418.495056,471.369537 417.558319,469.800568 416.239380,468.682343 
	C410.514771,463.829041 404.562836,459.238586 398.936676,454.276917 
	C396.474335,452.105408 394.126831,452.059662 391.499359,453.265289 
	C384.876434,456.304504 378.329834,459.511078 371.691376,462.515167 
	C359.987122,467.811707 348.242798,468.915985 336.408020,462.751801 
	C328.899719,458.841095 321.269958,455.164337 313.732361,451.308990 
	C298.735077,443.638123 283.790039,435.864166 268.734406,428.310211 
	C267.463196,427.672363 264.577698,427.732330 264.036377,428.538513 
	C256.311584,440.043152 256.556366,453.710907 268.285583,461.850525 
	C278.779022,469.132568 290.877960,474.101044 302.924133,480.492554 
M550.486267,396.985565 
	C544.509949,395.057098 538.344482,393.564514 532.610657,391.076996 
	C526.929382,388.612305 526.189819,379.682678 531.263428,376.601776 
	C539.697754,371.480072 550.913269,371.608917 558.344666,378.944977 
	C563.187622,383.725800 565.472961,383.928711 570.294006,378.986267 
	C571.271851,377.983856 571.674683,374.881531 570.904297,373.989380 
	C568.140137,370.788635 565.192261,367.268585 561.531738,365.407562 
	C549.506531,359.293823 537.400940,358.930908 525.124878,365.729614 
	C519.157776,369.034241 515.863770,373.571289 515.039856,379.920380 
	C513.868225,388.949158 515.257202,397.285919 524.188049,402.150208 
	C527.349365,403.872040 530.906616,404.925995 534.363770,406.032776 
	C540.957703,408.143768 547.664062,409.912201 554.222412,412.123230 
	C561.020325,414.415131 563.051880,422.445282 558.403625,427.820221 
	C551.258362,436.082489 532.540833,434.115601 525.201050,424.331177 
	C521.886963,419.913269 519.819275,419.853210 514.000854,423.925537 
	C509.989807,426.732849 513.553406,429.121613 514.461548,431.596405 
	C514.783691,432.474152 515.657349,433.169983 516.339294,433.892120 
	C527.392883,445.596985 546.938171,448.731750 562.282654,440.948456 
	C570.334473,436.864319 574.688721,429.709991 574.944885,420.909454 
	C575.165405,413.335022 572.128906,406.624146 564.837463,402.948639 
	C560.447449,400.735748 555.822021,398.989899 550.486267,396.985565 
M762.417236,424.919342 
	C760.058044,420.043213 758.816895,418.990662 748.621399,426.409851 
	C749.738281,428.238434 750.736328,430.218964 752.049377,431.962097 
	C757.655029,439.403748 765.301819,442.896698 774.438171,444.279510 
	C787.014160,446.182953 798.174683,444.449890 807.049255,434.466919 
	C812.601501,428.221252 813.269226,412.995667 806.494263,406.786316 
	C800.786621,401.555267 794.244751,398.812103 786.954712,396.908997 
	C780.919373,395.333466 774.947388,393.309326 769.207886,390.870667 
	C764.487122,388.864868 763.818115,383.292297 766.479248,378.834076 
	C770.700623,371.761963 788.189392,371.897583 793.821167,377.466156 
	C795.802979,379.425720 797.456055,381.717682 798.987305,383.535187 
	C802.143555,381.976562 804.165894,380.963837 806.200500,379.976501 
	C809.286865,378.478851 809.623596,376.045593 807.868896,373.538910 
	C806.447998,371.509003 804.605225,369.653259 802.618713,368.160492 
	C791.729553,359.977936 779.517212,358.843109 767.108093,363.222534 
	C760.520264,365.547516 754.802307,369.935577 752.956543,377.629303 
	C748.876038,394.638306 757.424988,401.904510 770.914734,405.984009 
	C777.696289,408.034821 784.581238,409.771088 791.280457,412.056915 
	C795.192627,413.391754 797.780701,416.396545 797.955811,420.796570 
	C798.135437,425.309662 796.051575,429.155457 792.112305,430.779877 
	C781.434204,435.183044 771.571106,433.269257 762.417236,424.919342 
M598.559265,428.999420 
	C596.535950,425.831116 594.512695,422.662811 592.489380,419.494507 
	C592.872803,418.988922 593.256226,418.483307 593.639587,417.977722 
	C608.317017,417.977722 622.994446,417.977722 637.535156,417.977722 
	C640.505371,397.790497 626.874451,382.145264 608.935181,382.893250 
	C597.564148,383.367340 588.796204,388.177643 583.535156,398.004181 
	C577.356567,409.544525 578.488586,421.472900 585.083252,432.508698 
	C589.899170,440.567963 598.193970,443.727875 607.107849,445.001587 
	C617.241211,446.449615 630.570679,440.546692 634.695801,432.844604 
	C635.427551,431.478546 635.835022,429.014313 635.099548,427.952667 
	C632.435120,424.106750 627.558533,424.100220 623.917236,427.494385 
	C616.649963,434.268433 607.189941,435.046631 598.559265,428.999420 
M375.375977,373.082367 
	C383.284485,377.068695 391.280121,380.894928 399.055511,385.125946 
	C401.873901,386.659607 405.280151,388.678070 406.432251,391.336121 
	C408.093292,395.168274 410.000519,394.236359 412.353333,393.177246 
	C422.032837,388.819946 431.713104,384.459412 441.304810,379.913788 
	C447.499054,376.978241 447.958710,369.975525 441.817780,366.491089 
	C432.055481,360.951904 421.990204,355.915161 411.846191,351.101898 
	C409.185120,349.839203 405.320557,349.025238 402.769104,349.998566 
	C394.060150,353.320770 385.650970,357.448608 377.209381,361.442352 
	C373.667023,363.118225 370.329926,365.227966 366.184631,367.539032 
	C369.485687,369.690887 372.048615,371.361603 375.375977,373.082367 
M840.084656,418.348846 
	C835.726440,407.865906 831.402832,397.368195 826.944031,386.928223 
	C826.588135,386.095001 825.320740,385.167297 824.437439,385.125916 
	C820.355286,384.934631 816.259216,385.041412 811.550720,385.041412 
	C819.075439,401.816345 826.293579,417.977661 833.582031,434.107239 
	C835.403076,438.137177 836.397095,441.571198 833.621521,446.090057 
	C829.923584,452.110626 827.621033,458.988220 824.726990,465.479889 
	C832.973267,469.270172 838.173218,467.335602 841.083313,460.220306 
	C843.695618,453.833221 846.540100,447.539062 849.370300,441.243530 
	C857.298584,423.607422 865.293091,406.000977 873.173828,388.343781 
	C873.614990,387.355408 873.739624,385.689178 873.195740,384.902374 
	C871.789978,382.868774 861.126526,383.896027 860.091248,386.172394 
	C857.907104,390.975128 856.045166,395.923248 853.979980,400.781555 
	C850.582947,408.773346 847.129456,416.741211 843.260193,425.741425 
	C842.087097,422.765228 841.335510,420.858429 840.084656,418.348846 
M974.371643,432.937683 
	C972.141235,432.661102 969.805908,432.717102 967.697937,432.052307 
	C956.541199,428.533844 952.370056,413.303223 959.387573,402.284515 
	C965.018921,393.442291 980.626587,392.155457 986.566711,400.464630 
	C989.904602,405.133789 992.256409,403.761810 995.601685,401.752991 
	C997.072998,400.869507 998.539246,399.977539 999.989685,399.100342 
	C996.403076,388.383881 984.003052,381.688934 968.235107,382.949158 
	C957.006470,383.846588 943.941406,397.503510 942.972290,409.106995 
	C941.360107,428.408295 949.951721,440.032654 967.305359,444.800507 
	C979.162170,448.058136 994.906128,440.665192 1000.196045,429.185852 
	C998.049683,427.899078 995.880920,426.533722 993.650024,425.279022 
	C991.196167,423.898865 989.842285,423.743622 987.336670,426.564453 
	C984.500854,429.756927 979.378784,430.918549 974.371643,432.937683 
M415.287354,458.114441 
	C417.803406,460.215607 420.385254,462.243835 422.818237,464.437164 
	C425.602142,466.946838 428.175171,466.741791 430.469818,463.960907 
	C432.434662,461.579742 434.221985,459.045105 435.991119,456.510895 
	C439.603119,451.336823 443.193542,446.146576 446.709137,440.906799 
	C449.222748,437.160431 448.456635,431.171204 444.977142,429.625275 
	C440.502686,427.637268 438.768646,431.066528 436.856964,434.294006 
	C434.369415,438.493744 431.491638,442.461945 428.791290,446.536102 
	C425.293396,451.813477 425.305450,451.806122 420.286774,447.808472 
	C419.014679,446.795197 417.690613,445.844360 416.360657,444.907074 
	C413.874908,443.155273 408.837830,444.030090 407.030518,446.477325 
	C404.497345,449.907410 407.019501,451.844421 409.237396,453.791077 
	C410.943024,455.288116 412.784546,456.630310 415.287354,458.114441 
z"/>
<path fill="#293463" opacity="1.000000" stroke="none" 
	d="
M400.769043,316.272827 
	C407.425568,319.470734 413.820679,322.347351 420.032776,325.576172 
	C421.586029,326.383514 423.197723,328.193359 423.522705,329.797638 
	C423.695892,330.652588 421.354126,332.429352 419.842194,333.145294 
	C411.040497,337.312927 402.143524,341.279114 393.287872,345.333282 
	C385.625885,348.840973 377.947754,352.315338 370.328339,355.913605 
	C361.672394,360.001343 353.039642,364.141998 344.472504,368.411530 
	C342.139191,369.574432 339.841492,371.030457 337.946014,372.800293 
	C334.807159,375.731079 335.392700,380.429474 339.184082,382.377716 
	C351.773315,388.846832 364.458923,395.128326 377.106567,401.483795 
	C378.289520,402.078217 380.063629,402.412628 380.496216,403.356720 
	C381.065002,404.597961 381.060486,407.413788 380.467804,407.677643 
	C372.174530,411.369751 364.435608,417.122589 354.666199,415.983154 
	C350.778137,415.529663 346.611664,415.065735 343.195038,413.359070 
	C321.944397,402.744263 300.787384,391.933258 279.770966,380.861542 
	C268.078186,374.701660 266.734100,362.406189 275.588593,352.723541 
	C281.646790,346.098724 289.476257,342.741211 297.159790,339.010254 
	C310.481842,332.541382 323.927460,326.326447 337.335968,320.036377 
	C345.098022,316.395142 352.776489,312.543701 360.692261,309.269562 
	C373.424500,304.003265 385.210388,307.545776 396.529846,313.942230 
	C397.823242,314.673065 399.136108,315.369476 400.769043,316.272827 
z"/>
<path fill="#2B8BB6" opacity="1.000000" stroke="none" 
	d="
M405.725464,438.767609 
	C395.229736,443.666443 384.947998,448.123169 374.916107,453.084961 
	C360.569397,460.180847 346.815125,459.791534 332.689240,452.067291 
	C318.412903,444.260712 303.609192,437.422821 289.100830,430.034332 
	C282.772766,426.811707 276.261841,423.773315 270.440277,419.769592 
	C260.178192,412.711975 259.696716,402.144409 263.711395,390.660645 
	C264.192230,389.285278 265.172943,388.084137 265.649628,386.707947 
	C266.735657,383.572723 268.598602,383.816620 271.052216,385.062103 
	C289.546204,394.449524 308.076294,403.765869 326.574188,413.145599 
	C331.061005,415.420685 335.437958,417.912079 339.921326,420.194183 
	C351.392792,426.033325 362.610718,424.792603 373.954865,419.410767 
	C387.441040,413.012787 401.182892,407.156097 414.749176,400.923889 
	C425.390991,396.035126 435.953827,390.972717 446.510101,385.900726 
	C449.956604,384.244812 452.211487,384.261749 453.440826,388.653503 
	C457.902618,404.593323 453.410034,416.889893 436.730621,424.153961 
	C426.377716,428.662842 416.269226,433.732910 405.725464,438.767609 
z"/>
<path fill="#61BC64" opacity="1.000000" stroke="none" 
	d="
M302.596313,480.291443 
	C290.877960,474.101044 278.779022,469.132568 268.285583,461.850525 
	C256.556366,453.710907 256.311584,440.043152 264.036377,428.538513 
	C264.577698,427.732330 267.463196,427.672363 268.734406,428.310211 
	C283.790039,435.864166 298.735077,443.638123 313.732361,451.308990 
	C321.269958,455.164337 328.899719,458.841095 336.408020,462.751801 
	C348.242798,468.915985 359.987122,467.811707 371.691376,462.515167 
	C378.329834,459.511078 384.876434,456.304504 391.499359,453.265289 
	C394.126831,452.059662 396.474335,452.105408 398.936676,454.276917 
	C404.562836,459.238586 410.514771,463.829041 416.239380,468.682343 
	C417.558319,469.800568 418.495056,471.369537 419.923065,473.117004 
	C407.218872,479.041504 395.448914,484.595886 383.619171,490.019897 
	C377.503845,492.823822 371.424622,495.811066 365.079285,497.986847 
	C352.090118,502.440918 339.786774,499.846649 327.968079,493.465424 
	C319.696564,488.999451 311.277374,484.807098 302.596313,480.291443 
z"/>
<path fill="#303338" opacity="1.000000" stroke="none" 
	d="
M727.123169,406.244080 
	C724.502808,397.798096 721.951904,395.394348 715.252197,395.057587 
	C709.253052,394.756042 703.116394,398.064423 701.029358,403.024567 
	C700.350403,404.638245 700.145996,406.549377 700.130005,408.328125 
	C700.038940,418.483185 699.880432,428.644379 700.149780,438.792755 
	C700.263916,443.093536 698.665649,444.477570 694.636475,444.094849 
	C692.352356,443.877930 690.030640,444.055664 687.036377,444.055664 
	C687.036377,434.060364 687.137451,424.465332 686.984314,414.874359 
	C686.926880,411.273224 686.517517,407.636292 685.846619,404.095612 
	C684.729980,398.202667 679.877502,394.812897 673.440247,395.044403 
	C667.008667,395.275665 660.494934,399.954468 660.178650,405.354248 
	C659.529053,416.443512 659.446106,427.565002 658.948486,438.665100 
	C658.870056,440.412933 658.077393,443.447784 657.208801,443.602234 
	C654.190430,444.138702 650.952881,443.900818 647.901001,443.369812 
	C647.347473,443.273529 647.027649,440.410675 647.020203,438.823059 
	C646.958374,425.669189 647.041321,412.514587 646.958679,399.360931 
	C646.944397,397.084839 645.982605,394.787903 646.129700,392.544647 
	C646.302002,389.916718 646.439880,385.860474 647.967957,385.064697 
	C650.593628,383.697418 654.372559,383.899048 657.480042,384.467072 
	C658.513733,384.655975 658.972595,387.989319 659.691589,389.878326 
	C675.426819,379.487244 685.799988,380.414246 696.182251,393.160522 
	C698.972839,390.996582 701.693115,388.733704 704.569214,386.690063 
	C712.483215,381.066711 720.955261,381.676697 729.019470,385.751038 
	C736.978882,389.772430 740.135010,396.996490 739.995422,405.881134 
	C739.828003,416.534851 739.673096,427.206116 740.115723,437.844696 
	C740.334717,443.107391 738.507385,444.781097 733.612427,444.092712 
	C731.974609,443.862396 730.296387,443.919037 728.291138,443.115356 
	C727.974304,438.571899 728.114502,434.754486 728.008850,430.943909 
	C727.780457,422.708771 727.426025,414.477142 727.123169,406.244080 
z"/>
<path fill="#303338" opacity="1.000000" stroke="none" 
	d="
M550.894348,397.009857 
	C555.822021,398.989899 560.447449,400.735748 564.837463,402.948639 
	C572.128906,406.624146 575.165405,413.335022 574.944885,420.909454 
	C574.688721,429.709991 570.334473,436.864319 562.282654,440.948456 
	C546.938171,448.731750 527.392883,445.596985 516.339294,433.892120 
	C515.657349,433.169983 514.783691,432.474152 514.461548,431.596405 
	C513.553406,429.121613 509.989807,426.732849 514.000854,423.925537 
	C519.819275,419.853210 521.886963,419.913269 525.201050,424.331177 
	C532.540833,434.115601 551.258362,436.082489 558.403625,427.820221 
	C563.051880,422.445282 561.020325,414.415131 554.222412,412.123230 
	C547.664062,409.912201 540.957703,408.143768 534.363770,406.032776 
	C530.906616,404.925995 527.349365,403.872040 524.188049,402.150208 
	C515.257202,397.285919 513.868225,388.949158 515.039856,379.920380 
	C515.863770,373.571289 519.157776,369.034241 525.124878,365.729614 
	C537.400940,358.930908 549.506531,359.293823 561.531738,365.407562 
	C565.192261,367.268585 568.140137,370.788635 570.904297,373.989380 
	C571.674683,374.881531 571.271851,377.983856 570.294006,378.986267 
	C565.472961,383.928711 563.187622,383.725800 558.344666,378.944977 
	C550.913269,371.608917 539.697754,371.480072 531.263428,376.601776 
	C526.189819,379.682678 526.929382,388.612305 532.610657,391.076996 
	C538.344482,393.564514 544.509949,395.057098 550.894348,397.009857 
z"/>
<path fill="#52AEDC" opacity="1.000000" stroke="none" 
	d="
M762.686035,425.185608 
	C771.571106,433.269257 781.434204,435.183044 792.112305,430.779877 
	C796.051575,429.155457 798.135437,425.309662 797.955811,420.796570 
	C797.780701,416.396545 795.192627,413.391754 791.280457,412.056915 
	C784.581238,409.771088 777.696289,408.034821 770.914734,405.984009 
	C757.424988,401.904510 748.876038,394.638306 752.956543,377.629303 
	C754.802307,369.935577 760.520264,365.547516 767.108093,363.222534 
	C779.517212,358.843109 791.729553,359.977936 802.618713,368.160492 
	C804.605225,369.653259 806.447998,371.509003 807.868896,373.538910 
	C809.623596,376.045593 809.286865,378.478851 806.200500,379.976501 
	C804.165894,380.963837 802.143555,381.976562 798.987305,383.535187 
	C797.456055,381.717682 795.802979,379.425720 793.821167,377.466156 
	C788.189392,371.897583 770.700623,371.761963 766.479248,378.834076 
	C763.818115,383.292297 764.487122,388.864868 769.207886,390.870667 
	C774.947388,393.309326 780.919373,395.333466 786.954712,396.908997 
	C794.244751,398.812103 800.786621,401.555267 806.494263,406.786316 
	C813.269226,412.995667 812.601501,428.221252 807.049255,434.466919 
	C798.174683,444.449890 787.014160,446.182953 774.438171,444.279510 
	C765.301819,442.896698 757.655029,439.403748 752.049377,431.962097 
	C750.736328,430.218964 749.738281,428.238434 748.621399,426.409851 
	C758.816895,418.990662 760.058044,420.043213 762.686035,425.185608 
z"/>
<path fill="#303338" opacity="1.000000" stroke="none" 
	d="
M598.817200,429.268738 
	C607.189941,435.046631 616.649963,434.268433 623.917236,427.494385 
	C627.558533,424.100220 632.435120,424.106750 635.099548,427.952667 
	C635.835022,429.014313 635.427551,431.478546 634.695801,432.844604 
	C630.570679,440.546692 617.241211,446.449615 607.107849,445.001587 
	C598.193970,443.727875 589.899170,440.567963 585.083252,432.508698 
	C578.488586,421.472900 577.356567,409.544525 583.535156,398.004181 
	C588.796204,388.177643 597.564148,383.367340 608.935181,382.893250 
	C626.874451,382.145264 640.505371,397.790497 637.535156,417.977722 
	C622.994446,417.977722 608.317017,417.977722 593.639587,417.977722 
	C593.256226,418.483307 592.872803,418.988922 592.489380,419.494507 
	C594.512695,422.662811 596.535950,425.831116 598.817200,429.268738 
M608.503540,408.032593 
	C613.855835,408.032593 619.208191,408.032593 624.767700,408.032593 
	C622.846924,399.131348 617.441345,394.392548 609.637146,394.662079 
	C601.683533,394.936829 595.441406,398.602570 593.629822,408.030731 
	C598.345154,408.030731 602.926575,408.030731 608.503540,408.032593 
z"/>
<path fill="#62BCDE" opacity="1.000000" stroke="none" 
	d="
M374.993744,373.057312 
	C372.048615,371.361603 369.485687,369.690887 366.184631,367.539032 
	C370.329926,365.227966 373.667023,363.118225 377.209381,361.442352 
	C385.650970,357.448608 394.060150,353.320770 402.769104,349.998566 
	C405.320557,349.025238 409.185120,349.839203 411.846191,351.101898 
	C421.990204,355.915161 432.055481,360.951904 441.817780,366.491089 
	C447.958710,369.975525 447.499054,376.978241 441.304810,379.913788 
	C431.713104,384.459412 422.032837,388.819946 412.353333,393.177246 
	C410.000519,394.236359 408.093292,395.168274 406.432251,391.336121 
	C405.280151,388.678070 401.873901,386.659607 399.055511,385.125946 
	C391.280121,380.894928 383.284485,377.068695 374.993744,373.057312 
z"/>
<path fill="#53B2DF" opacity="1.000000" stroke="none" 
	d="
M840.334290,418.650238 
	C841.335510,420.858429 842.087097,422.765228 843.260193,425.741425 
	C847.129456,416.741211 850.582947,408.773346 853.979980,400.781555 
	C856.045166,395.923248 857.907104,390.975128 860.091248,386.172394 
	C861.126526,383.896027 871.789978,382.868774 873.195740,384.902374 
	C873.739624,385.689178 873.614990,387.355408 873.173828,388.343781 
	C865.293091,406.000977 857.298584,423.607422 849.370300,441.243530 
	C846.540100,447.539062 843.695618,453.833221 841.083313,460.220306 
	C838.173218,467.335602 832.973267,469.270172 824.726990,465.479889 
	C827.621033,458.988220 829.923584,452.110626 833.621521,446.090057 
	C836.397095,441.571198 835.403076,438.137177 833.582031,434.107239 
	C826.293579,417.977661 819.075439,401.816345 811.550720,385.041412 
	C816.259216,385.041412 820.355286,384.934631 824.437439,385.125916 
	C825.320740,385.167297 826.588135,386.095001 826.944031,386.928223 
	C831.402832,397.368195 835.726440,407.865906 840.334290,418.650238 
z"/>
<path fill="#53B2DF" opacity="1.000000" stroke="none" 
	d="
M974.811279,432.950439 
	C979.378784,430.918549 984.500854,429.756927 987.336670,426.564453 
	C989.842285,423.743622 991.196167,423.898865 993.650024,425.279022 
	C995.880920,426.533722 998.049683,427.899078 1000.196045,429.185852 
	C994.906128,440.665192 979.162170,448.058136 967.305359,444.800507 
	C949.951721,440.032654 941.360107,428.408295 942.972290,409.106995 
	C943.941406,397.503510 957.006470,383.846588 968.235107,382.949158 
	C984.003052,381.688934 996.403076,388.383881 999.989685,399.100342 
	C998.539246,399.977539 997.072998,400.869507 995.601685,401.752991 
	C992.256409,403.761810 989.904602,405.133789 986.566711,400.464630 
	C980.626587,392.155457 965.018921,393.442291 959.387573,402.284515 
	C952.370056,413.303223 956.541199,428.533844 967.697937,432.052307 
	C969.805908,432.717102 972.141235,432.661102 974.811279,432.950439 
z"/>
<path fill="#53B2DF" opacity="1.000000" stroke="none" 
	d="
M894.894165,388.950562 
	C906.703979,377.881134 929.902222,381.800171 933.868164,400.217163 
	C935.092773,405.903992 934.842957,411.943024 934.954102,417.826721 
	C935.116699,426.431152 934.996033,435.040955 934.996033,443.311768 
	C934.529297,443.756226 934.416016,443.961487 934.292786,443.967651 
	C921.977417,444.584045 921.977112,444.583130 921.975281,432.399109 
	C921.974121,424.747711 922.054077,417.095215 921.952820,409.445160 
	C921.829529,400.133606 916.510071,394.590881 907.951904,395.058044 
	C899.154358,395.538300 892.047974,401.170868 892.767395,410.779419 
	C892.184021,420.359802 891.926147,429.190216 891.370850,438.182709 
	C889.754639,441.225128 887.367065,443.195496 884.534546,441.637238 
	C883.040283,440.815186 882.141785,437.709473 882.112427,435.618866 
	C881.910156,421.193542 881.998840,406.764008 882.018372,392.335846 
	C882.021729,389.866638 881.622375,387.181915 885.452637,387.001160 
	C888.565430,386.854248 890.017334,387.956451 890.179321,391.204315 
	C890.220459,392.028931 891.970154,392.768341 892.934814,393.546875 
	C893.587952,392.014771 894.241028,390.482666 894.894165,388.950562 
z"/>
<path fill="#5CB961" opacity="1.000000" stroke="none" 
	d="
M414.926483,458.077911 
	C412.784546,456.630310 410.943024,455.288116 409.237396,453.791077 
	C407.019501,451.844421 404.497345,449.907410 407.030518,446.477325 
	C408.837830,444.030090 413.874908,443.155273 416.360657,444.907074 
	C417.690613,445.844360 419.014679,446.795197 420.286774,447.808472 
	C425.305450,451.806122 425.293396,451.813477 428.791290,446.536102 
	C431.491638,442.461945 434.369415,438.493744 436.856964,434.294006 
	C438.768646,431.066528 440.502686,427.637268 444.977142,429.625275 
	C448.456635,431.171204 449.222748,437.160431 446.709137,440.906799 
	C443.193542,446.146576 439.603119,451.336823 435.991119,456.510895 
	C434.221985,459.045105 432.434662,461.579742 430.469818,463.960907 
	C428.175171,466.741791 425.602142,466.946838 422.818237,464.437164 
	C420.385254,462.243835 417.803406,460.215607 414.926483,458.077911 
z"/>
<path fill="#52AEDC" opacity="1.000000" stroke="none" 
	d="
M894.581726,389.095642 
	C894.241028,390.482666 893.587952,392.014771 892.934814,393.546875 
	C891.970154,392.768341 890.220459,392.028931 890.179321,391.204315 
	C890.017334,387.956451 888.565430,386.854248 885.452637,387.001160 
	C881.622375,387.181915 882.021729,389.866638 882.018372,392.335846 
	C881.998840,406.764008 881.910156,421.193542 882.112427,435.618866 
	C882.141785,437.709473 883.040283,440.815186 884.534546,441.637238 
	C887.367065,443.195496 889.754639,441.225128 891.471558,438.489868 
	C892.241821,439.147949 892.614014,439.660980 892.986206,440.174011 
	C891.897522,441.437561 890.808838,442.701141 888.998657,443.709412 
	C880.997009,442.360748 880.995544,442.360748 880.995422,434.572571 
	C880.995178,418.110657 880.996582,401.648712 880.997314,385.186798 
	C882.620911,385.131744 884.249817,385.141968 885.867004,385.008728 
	C889.889587,384.677307 893.275085,385.036804 891.654541,391.660278 
	C893.185181,390.243896 893.727234,389.742340 894.581726,389.095642 
z"/>
<path fill="#53B2DF" opacity="1.000000" stroke="none" 
	d="
M880.591919,385.330078 
	C880.996582,401.648712 880.995178,418.110657 880.995422,434.572571 
	C880.995544,442.360748 880.997009,442.360748 888.620422,443.641235 
	C886.164307,443.828400 883.365051,443.828400 880.186462,443.828400 
	C880.186462,424.303497 880.186462,404.888428 880.591919,385.330078 
z"/>
<path fill="#293463" opacity="1.000000" stroke="none" 
	d="
M727.064331,406.686096 
	C727.426025,414.477142 727.780457,422.708771 728.008850,430.943909 
	C728.114502,434.754486 727.974304,438.571899 727.942932,442.891418 
	C727.562988,439.202515 726.929993,435.012482 726.863281,430.813446 
	C726.738037,422.921112 726.939819,415.023529 727.064331,406.686096 
z"/>
<path fill="#62BCDE" opacity="1.000000" stroke="none" 
	d="
M893.053101,439.692139 
	C892.614014,439.660980 892.241821,439.147949 891.768982,438.327759 
	C891.926147,429.190216 892.184021,420.359802 892.713013,411.191376 
	C893.029419,420.305634 893.074707,429.757904 893.053101,439.692139 
z"/>
<path fill="#000000" opacity="1.000000" stroke="none" 
	d="
M608.005798,408.031677 
	C602.926575,408.030731 598.345154,408.030731 593.629822,408.030731 
	C595.441406,398.602570 601.683533,394.936829 609.637146,394.662079 
	C617.441345,394.392548 622.846924,399.131348 624.767700,408.032593 
	C619.208191,408.032593 613.855835,408.032593 608.005798,408.031677 
z"/>
</svg>